<?xml version="1.0" encoding="utf-8"?>
<!-- Generator: Adobe Illustrator 23.0.3, SVG Export Plug-In . SVG Version: 6.00 Build 0)  -->
<svg version="1.1" id="Capa_1" xmlns="http://www.w3.org/2000/svg" xmlns:xlink="http://www.w3.org/1999/xlink" x="0px" y="0px"
	 viewBox="0 0 400 400" style="enable-background:new 0 0 400 400;" xml:space="preserve">
<title>Star</title>
<desc>Star icon</desc>
<g id="star">
	<style type="text/css">
		.star_bg{opacity:0.6;fill:#A39CFF;}
		.star_shine{opacity:0.6;fill:#9172D7;}
		.star_path{opacity:1;fill:#4037AC;}
	</style>
	<path id="star_x5F_bg" class="star_bg" d="M383.8,148.9l-125-11.6L209.2,22c-3.5-8.1-14.9-8.1-18.4,0l-49.7,115.2l-125,11.6
		c-8.8,1-12.3,11.8-5.7,17.6l94.3,82.8L77.1,371.7c-1.9,8.6,7.3,15.3,14.9,10.8l107.9-64l107.9,64.1c7.6,4.5,16.8-2.2,14.9-10.8
		l-27.6-122.6l94.3-82.8C396.1,160.6,392.5,149.8,383.8,148.9z"/>
	<path id="star_x5F_shine" class="star_shine" d="M227.2,64l-18-42c-3.5-8.1-14.9-8.1-18.4,0l-49.7,115.2l-125,11.6
		c-8.8,1-12.3,11.8-5.7,17.6l94.3,82.8L77.1,371.7c-1.9,8.6,7.3,15.3,14.9,10.8l14.3-8.6C130,221.6,196.1,109.6,227.2,64z"/>
	<path id="star_x5F_path" class="star_path" d="M399.3,153.5c-2.1-6.6-7.8-11.2-14.8-11.8l-120.7-11.2L241.1,78l0,0l-25.3-58.8
		C213,12.8,206.9,8.8,200,8.8c-6.9,0-13.1,3.9-15.8,10.4l-47.9,111.4L15.5,141.7c-6.9,0.7-12.6,5.2-14.8,11.8
		c-2.1,6.6-0.2,13.7,5,18.3l91.1,80l-5.9,26.3l-9.3,41.6l0,0L70.2,370c-1.5,6.8,1.1,13.6,6.6,17.7c3.1,2.2,6.5,3.4,10.1,3.4
		c3,0,6.1-0.8,8.9-2.5L200,326.8l104.3,61.9c6.1,3.6,13.3,3.3,19-0.9c5.7-4.1,8.2-10.9,6.6-17.7l-26.7-118.2l91.1-80
		C399.5,167.2,401.5,160.3,399.3,153.5z M384.7,161l-94.3,82.8c-2,1.7-2.9,4.4-2.3,7l27.6,122.5c0.4,1.5-0.5,2.5-1.1,2.9
		s-1.7,1-3.1,0.1l-107.9-64.1c-2.3-1.3-5.1-1.3-7.4,0L88.4,376.3c-1.3,0.9-2.5,0.3-3.1-0.1c-0.6-0.4-1.4-1.3-1.1-2.9l14.2-63.3l0,0
		l6.5-28.8l6.8-30.4c0.6-2.6-0.3-5.3-2.3-7L15.2,161c-1.2-1.1-1.1-2.3-0.8-3c0.2-0.7,0.8-1.7,2.4-1.9l125-11.6c2.6-0.3,4.9-1.9,6-4.3
		l49.6-115.3c0.7-1.4,1.9-1.7,2.6-1.7s1.9,0.2,2.6,1.7l25.3,58.8l0,0l6.5,14.9l0.2,0.5l0,0l17.7,41c1.1,2.4,3.4,4,6,4.3l125,11.6
		c1.6,0.2,2.2,1.3,2.4,1.9C385.8,158.7,385.9,160,384.7,161z"/>
</g>
</svg>
